<?xml version="1.0" encoding="UTF-8"?>
<!DOCTYPE svg PUBLIC "-//W3C//DTD SVG 1.1//EN" "http://www.w3.org/Graphics/SVG/1.1/DTD/svg11.dtd">
<!-- Creator: CorelDRAW X6 -->
<svg xmlns="http://www.w3.org/2000/svg" xml:space="preserve" width="91.0198mm" height="46.3395mm" version="1.1" style="shape-rendering:geometricPrecision; text-rendering:geometricPrecision; image-rendering:optimizeQuality; fill-rule:evenodd; clip-rule:evenodd"
viewBox="0 0 1256 639"
 xmlns:xlink="http://www.w3.org/1999/xlink">
 <defs>
  <style type="text/css">
   <![CDATA[
    .fil1 {fill:black}
    .fil3 {fill:#0069AE}
    .fil6 {fill:#070707}
    .fil13 {fill:#181A1B}
    .fil19 {fill:#242425}
    .fil12 {fill:#282A2C}
    .fil4 {fill:#364886}
    .fil16 {fill:#454749}
    .fil5 {fill:#4D4E50}
    .fil11 {fill:#505254}
    .fil9 {fill:#59575B}
    .fil15 {fill:#646668}
    .fil10 {fill:#706F70}
    .fil22 {fill:#98171F}
    .fil14 {fill:#9D9D9F}
    .fil17 {fill:#9D9FA2}
    .fil8 {fill:#A19BA1}
    .fil2 {fill:#B70408}
    .fil0 {fill:#D81F2C}
    .fil7 {fill:#DFD5DB}
    .fil18 {fill:#E3F5F9}
    .fil21 {fill:#E7D988}
    .fil20 {fill:white}
   ]]>
  </style>
 </defs>
 <g id="Layer_x0020_1">
  <metadata id="CorelCorpID_0Corel-Layer"/>
  <g id="abs5_csod_210125.eps">
   <path class="fil0" d="M1188 297l-194 -60c0,0 -52,-116 -108,-173 -56,-58 -119,-60 -119,-60 0,0 -57,-1 -129,-2l0 0c-6,0 -12,0 -18,0 -6,0 -12,0 -18,0l0 0c-72,1 -129,2 -129,2 0,0 -63,2 -119,60 -56,57 -108,173 -108,173l-194 60c0,0 -42,19 -40,58 2,39 2,120 2,120l340 43 248 0 36 0 248 0 340 -43c0,0 0,-81 2,-120 2,-39 -40,-58 -40,-58z"/>
   <path class="fil1" d="M16 473l338 43 532 0 338 -43c0,-12 0,-82 2,-118 2,-37 -39,-56 -39,-56l-194 -60c0,0 -1,-1 -1,-1 0,-1 -52,-117 -107,-173 -55,-56 -117,-59 -118,-59 -1,0 -58,-1 -129,-2l-1 0 -17 0 -17 0 -1 0c-72,1 -129,2 -129,2 -1,0 -63,3 -118,59 -55,56 -107,172 -107,173 -1,0 -1,1 -2,1l-194 60c0,0 -40,19 -38,56 2,36 2,106 2,118zm870 47l-532 0 -340 -43c-1,0 -2,-1 -2,-2 0,-1 0,-81 -2,-120 -2,-39 41,-60 41,-60l193 -60c5,-10 55,-118 108,-173 56,-57 120,-60 120,-60 1,0 58,-1 129,-2l1 0 0 0 18 0 18 0 1 0c71,1 128,2 128,2 1,0 64,3 120,60 53,55 103,163 108,173l193 60c1,0 44,21 42,60 -2,39 -2,119 -2,120 0,1 -1,2 -2,2l-340 43 0 0z"/>
   <path class="fil2" d="M354 516l-236 -30c1,-5 2,-11 4,-16 0,-1 0,-1 0,-2 0,0 -1,-1 -2,-1l-5 0c-1,-5 -3,-9 -6,-12 -6,-6 -15,-7 -18,-7 -1,0 -1,0 -1,0l-74 1c0,-27 -1,-69 -2,-94 -2,-37 38,-56 38,-56l25 -8c19,13 39,24 61,34 50,23 102,40 155,55 118,34 239,49 362,49 0,0 1,0 2,0 43,0 87,-2 130,-6 -19,26 -31,58 -33,93l-400 0zm679 -52c-10,-29 -29,-54 -52,-71 12,-3 24,-6 37,-9 55,-15 110,-34 162,-59 8,-5 17,-9 26,-14 10,10 21,25 20,44 -1,20 -2,51 -2,76l-181 26c-3,1 -7,3 -10,7z"/>
   <path class="fil1" d="M754 518l-400 0 -237 -30c0,-1 0,-1 1,-2l236 30 400 0c0,1 0,2 0,2zm-740 -69c0,-27 -1,-69 -2,-94 -2,-39 40,-58 40,-58l22 -7c1,0 2,1 3,1l-25 8c0,0 -40,19 -38,56 1,25 2,67 2,94l-2 0zm1210 -18c0,-25 1,-56 2,-76 1,-19 -10,-34 -20,-44 0,0 1,0 1,-1 11,10 22,25 21,45 -1,20 -2,51 -2,76l-2 0z"/>
   <path class="fil3" d="M112 517c0,-16 3,-33 8,-48l-108 0c2,9 5,19 9,33 2,10 9,16 18,19 8,4 18,4 26,4 6,0 10,0 14,0 2,0 13,0 33,0l0 0 0 -1c0,-2 0,-4 0,-7z"/>
   <path class="fil4" d="M14 471c1,3 2,7 3,11 2,5 4,12 6,19 2,9 7,15 16,19 9,3 19,3 26,3 3,0 6,0 8,0 3,0 4,0 6,0 1,0 12,0 31,0 0,-2 0,-4 0,-6 0,-15 3,-31 8,-46l-104 0zm51 56c-7,0 -18,0 -27,-4 -10,-4 -17,-11 -19,-21 -2,-7 -4,-14 -6,-19 -1,-5 -2,-9 -3,-13 0,-1 0,-1 0,-2 1,0 1,-1 2,-1l108 0c1,0 2,1 2,1 0,1 0,1 0,2 -5,15 -8,31 -8,47 0,3 0,5 0,7l0 1c0,0 0,1 0,1 -1,1 -1,1 -2,1l0 0c-20,0 -31,0 -33,0 -2,0 -3,0 -6,0 -2,0 -5,0 -8,0z"/>
   <path class="fil1" d="M899 365c-79,0 -144,70 -145,157l290 0c-1,-87 -65,-157 -145,-157z"/>
   <path class="fil1" d="M243 380c-72,0 -130,60 -131,136l262 0c-1,-76 -59,-136 -131,-136z"/>
   <path class="fil5" d="M362 518c0,66 -54,120 -120,120 -65,0 -119,-54 -119,-120 0,-65 54,-119 119,-119 66,0 120,54 120,119z"/>
   <path class="fil1" d="M242 401c-64,0 -117,53 -117,117 0,65 53,118 117,118 65,0 118,-53 118,-118 0,-64 -53,-117 -118,-117zm0 238c-66,0 -121,-54 -121,-121 0,-66 55,-121 121,-121 67,0 121,55 121,121 0,67 -54,121 -121,121z"/>
   <path class="fil6" d="M321 518c0,44 -35,80 -79,80 -43,0 -78,-36 -78,-80 0,-43 35,-79 78,-79 44,0 79,36 79,79z"/>
   <path class="fil7" d="M318 518c0,42 -34,76 -76,76 -41,0 -75,-34 -75,-76 0,-42 34,-76 75,-76 42,0 76,34 76,76z"/>
   <path class="fil1" d="M242 443c-41,0 -74,34 -74,75 0,42 33,75 74,75 42,0 75,-33 75,-75 0,-41 -33,-75 -75,-75zm0 152c-42,0 -76,-34 -76,-77 0,-42 34,-76 76,-76 43,0 77,34 77,76 0,43 -34,77 -77,77z"/>
   <path class="fil7" d="M313 518c0,40 -32,71 -71,71 -38,0 -70,-31 -70,-71 0,-39 32,-70 70,-70 39,0 71,31 71,70z"/>
   <path class="fil1" d="M242 449c-38,0 -69,31 -69,69 0,39 31,70 69,70 39,0 70,-31 70,-70 0,-38 -31,-69 -70,-69zm0 141c-39,0 -71,-32 -71,-72 0,-39 32,-71 71,-71 40,0 72,32 72,71 0,40 -32,72 -72,72z"/>
   <path class="fil8" d="M305 518c0,35 -28,62 -63,62 -34,0 -62,-27 -62,-62 0,-34 28,-61 62,-61 35,0 63,27 63,61z"/>
   <path class="fil1" d="M242 458c-33,0 -61,27 -61,60 0,34 28,61 61,61 34,0 62,-27 62,-61 0,-33 -28,-60 -62,-60zm0 123c-34,0 -63,-28 -63,-63 0,-34 29,-62 63,-62 35,0 64,28 64,62 0,35 -29,63 -64,63z"/>
   <path class="fil1" d="M293 518c0,28 -23,51 -51,51 -27,0 -50,-23 -50,-51 0,-27 23,-50 50,-50 28,0 51,23 51,50z"/>
   <path class="fil7" d="M266 539c12,8 21,18 28,28 3,-5 7,-9 9,-14 -26,-11 -60,-30 -36,-51 12,-10 25,-16 36,-20 -2,-3 -4,-7 -7,-10 -2,-2 -3,-4 -5,-5 -16,23 -41,51 -56,23 -7,-14 -11,-28 -12,-40 -5,1 -9,3 -13,5 16,24 34,58 2,62 -15,2 -28,1 -40,-2 0,5 0,10 1,15 27,-9 63,-16 58,15 -2,16 -7,29 -13,39 3,1 6,2 9,3 4,-28 13,-66 39,-48z"/>
   <path class="fil1" d="M219 584c3,0 5,1 7,2 3,-24 11,-53 28,-53 4,0 8,2 13,5 10,8 19,17 27,27 3,-4 6,-7 8,-11 -19,-8 -42,-21 -44,-35 -1,-6 2,-12 9,-18 10,-8 22,-15 35,-19 -2,-4 -4,-7 -7,-9 -1,-2 -2,-3 -4,-5 -11,16 -27,35 -41,35 -6,0 -12,-4 -16,-12 -6,-12 -10,-26 -12,-40 -4,1 -7,3 -11,5 12,17 24,39 18,52 -3,6 -8,9 -17,10 -13,2 -26,1 -39,-2 0,4 0,9 1,13 28,-9 47,-10 55,-1 3,4 4,10 3,17 -2,14 -6,27 -13,39zm8 4l0 0c-3,-1 -6,-2 -10,-3l0 -1 0 0c7,-12 11,-25 13,-39 1,-7 0,-12 -3,-16 -7,-8 -26,-7 -53,2l-1 0 -1 0c-1,-6 -1,-11 -1,-16l1 -1 1 0c12,3 26,4 39,2 8,-1 13,-4 15,-9 6,-12 -7,-35 -18,-51l0 -1 0 -1c4,-2 9,-4 14,-5l0 0 1 1c1,14 5,28 12,40 4,7 9,11 14,11 14,0 29,-19 40,-35l1 0 1 0c2,2 3,4 5,5 2,4 5,7 7,11l0 0 -1 1c-13,4 -25,11 -35,20 -6,5 -9,10 -8,16 2,13 25,25 44,33l0 1 0 1c-2,5 -6,9 -10,13l-1 0 0 0c-8,-11 -17,-20 -27,-27 -4,-3 -9,-5 -12,-5 -17,0 -23,33 -26,52l0 1 -1 0z"/>
   <path class="fil7" d="M274 522c14,0 27,2 38,6 0,-5 0,-11 0,-16 -28,6 -67,10 -59,-21 4,-15 11,-27 18,-37 -4,-2 -7,-3 -11,-4 -3,-1 -5,-1 -8,-2 1,28 -4,66 -32,52 -14,-7 -25,-17 -33,-26 -3,4 -5,8 -8,12 27,10 61,28 38,49 -11,10 -23,17 -34,21 3,5 6,9 10,13 16,-23 41,-50 55,-22 7,14 10,28 12,40 3,-1 6,-2 9,-3 -13,-25 -27,-62 5,-62z"/>
   <path class="fil1" d="M233 534c6,0 12,4 16,13 6,12 10,25 11,39 3,-1 5,-2 8,-3 -10,-18 -19,-42 -12,-54 3,-5 9,-8 18,-8l0 0c13,0 25,2 37,6 0,-5 0,-9 0,-14 -12,3 -23,4 -32,4 -12,0 -20,-3 -25,-8 -3,-4 -4,-11 -2,-18 4,-13 10,-26 18,-37 -4,-1 -7,-2 -11,-3 -2,-1 -4,-1 -6,-2 0,18 -1,41 -11,50 -5,6 -13,7 -22,2 -13,-6 -24,-15 -33,-25 -2,3 -4,6 -6,10 19,7 41,18 44,32 1,6 -1,12 -8,18 -9,9 -21,16 -33,21 3,3 5,7 8,10 12,-15 27,-33 41,-33zm27 54l-1 0 0 -1c-2,-14 -5,-27 -12,-40 -3,-7 -8,-11 -14,-11 -13,0 -29,18 -40,33l0 1 -1 -1c-4,-3 -7,-8 -10,-12l0 -1 0 -1c13,-4 24,-11 34,-20 6,-6 8,-11 7,-17 -2,-13 -25,-24 -44,-31l-1 -1 0 0c3,-5 5,-9 8,-13l1 0 1 0c9,11 20,20 33,26 8,4 15,4 20,-1 9,-9 11,-32 10,-50l1 0 1 -1c2,1 4,1 7,2 4,1 8,2 11,4l1 1 0 0c-8,12 -14,24 -18,37 -2,7 -1,13 2,17 4,5 11,7 23,7 9,0 20,-1 33,-4l1 0 0 1c0,5 0,11 -1,16l0 1 -1 0c-12,-4 -24,-6 -37,-6l0 0c-8,0 -14,2 -16,7 -7,12 2,35 12,53l0 1 -1 0c-3,2 -6,3 -9,4l0 0z"/>
   <path class="fil7" d="M258 518c0,9 -7,15 -15,15 -9,0 -15,-6 -15,-15 0,-8 6,-15 15,-15 8,0 15,7 15,15z"/>
   <path class="fil1" d="M243 504c-8,0 -14,7 -14,14 0,8 6,14 14,14 7,0 14,-6 14,-14 0,-7 -7,-14 -14,-14zm0 30c-9,0 -16,-7 -16,-16 0,-8 7,-16 16,-16 8,0 15,8 15,16 0,9 -7,16 -15,16z"/>
   <path class="fil1" d="M256 518c0,8 -6,14 -14,14 -7,0 -13,-6 -13,-14 0,-7 6,-13 13,-13 8,0 14,6 14,13z"/>
   <path class="fil9" d="M254 518c0,7 -5,12 -12,12 -6,0 -11,-5 -11,-12 0,-6 5,-12 11,-12 7,0 12,6 12,12z"/>
   <path class="fil10" d="M203 417c0,0 -56,20 -67,76 0,0 -2,8 2,11 0,0 3,3 5,-3 2,-7 12,-70 89,-82 0,0 12,1 12,-3 0,-5 -20,-7 -41,1z"/>
   <path class="fil1" d="M893 380c-72,0 -130,60 -131,136l262 0c-1,-76 -59,-136 -131,-136z"/>
   <path class="fil5" d="M1012 518c0,66 -53,120 -119,120 -66,0 -119,-54 -119,-120 0,-65 53,-119 119,-119 66,0 119,54 119,119z"/>
   <path class="fil1" d="M893 401c-65,0 -117,53 -117,117 0,65 52,118 117,118 64,0 117,-53 117,-118 0,-64 -53,-117 -117,-117zm0 238c-67,0 -121,-54 -121,-121 0,-66 54,-121 121,-121 67,0 121,55 121,121 0,67 -54,121 -121,121z"/>
   <path class="fil6" d="M972 518c0,44 -36,80 -79,80 -44,0 -79,-36 -79,-80 0,-43 35,-79 79,-79 43,0 79,36 79,79z"/>
   <path class="fil7" d="M968 518c0,42 -33,76 -75,76 -42,0 -76,-34 -76,-76 0,-42 34,-76 76,-76 42,0 75,34 75,76z"/>
   <path class="fil1" d="M893 443c-41,0 -75,34 -75,75 0,42 34,75 75,75 41,0 74,-33 74,-75 0,-41 -33,-75 -74,-75zm0 152c-42,0 -77,-34 -77,-77 0,-42 35,-76 77,-76 42,0 76,34 76,76 0,43 -34,77 -76,77z"/>
   <path class="fil7" d="M963 518c0,40 -31,71 -70,71 -39,0 -70,-31 -70,-71 0,-39 31,-70 70,-70 39,0 70,31 70,70z"/>
   <path class="fil1" d="M893 449c-38,0 -69,31 -69,69 0,39 31,70 69,70 38,0 69,-31 69,-70 0,-38 -31,-69 -69,-69zm0 141c-39,0 -71,-32 -71,-72 0,-39 32,-71 71,-71 39,0 71,32 71,71 0,40 -32,72 -71,72z"/>
   <path class="fil8" d="M955 518c0,35 -28,62 -62,62 -34,0 -62,-27 -62,-62 0,-34 28,-61 62,-61 34,0 62,27 62,61z"/>
   <path class="fil1" d="M893 458c-34,0 -61,27 -61,60 0,34 27,61 61,61 34,0 61,-27 61,-61 0,-33 -27,-60 -61,-60zm0 123c-35,0 -63,-28 -63,-63 0,-34 28,-62 63,-62 35,0 63,28 63,62 0,35 -28,63 -63,63z"/>
   <path class="fil1" d="M944 518c0,28 -23,51 -51,51 -28,0 -51,-23 -51,-51 0,-27 23,-50 51,-50 28,0 51,23 51,50z"/>
   <path class="fil7" d="M917 539c12,8 20,18 27,28 4,-5 7,-9 10,-14 -26,-11 -61,-30 -36,-51 12,-10 24,-16 36,-20 -3,-3 -5,-7 -8,-10 -1,-2 -3,-4 -5,-5 -15,23 -41,51 -56,23 -7,-14 -10,-28 -12,-40 -4,1 -9,3 -13,5 16,24 34,58 2,62 -14,2 -28,1 -39,-2 -1,5 0,10 1,15 26,-9 62,-16 58,15 -3,16 -8,29 -14,39 3,1 6,2 10,3 3,-28 13,-66 39,-48z"/>
   <path class="fil1" d="M870 584c2,0 4,1 7,2 3,-24 10,-53 27,-53 4,0 9,2 13,5 11,8 20,17 27,27 3,-4 6,-7 8,-11 -19,-8 -41,-21 -43,-35 -1,-6 1,-12 8,-18 10,-8 22,-15 35,-19 -2,-4 -4,-7 -6,-9 -2,-2 -3,-3 -4,-5 -11,16 -27,35 -41,35 -7,0 -12,-4 -16,-12 -7,-12 -11,-26 -13,-40 -3,1 -7,3 -10,5 11,17 23,39 17,52 -2,6 -8,9 -16,10 -13,2 -27,1 -39,-2 -1,4 0,9 0,13 28,-9 47,-10 55,-1 3,4 5,10 4,17 -2,14 -7,27 -13,39zm8 4l-1 0c-3,-1 -6,-2 -9,-3l-1 -1 0 0c7,-12 12,-25 14,-39 1,-7 0,-12 -3,-16 -8,-8 -26,-7 -54,2l-1 0 0 0c-1,-6 -2,-11 -1,-16l0 -1 1 0c13,3 26,4 39,2 8,-1 13,-4 16,-9 5,-12 -7,-35 -19,-51l0 -1 1 -1c4,-2 8,-4 13,-5l1 0 0 1c2,14 6,28 12,40 4,7 9,11 15,11 13,0 29,-19 40,-35l0 0 1 0c2,2 4,4 5,5 3,4 5,7 7,11l0 0 0 1c-13,4 -25,11 -36,20 -6,5 -8,10 -8,16 3,13 25,25 44,33l1 1 0 1c-3,5 -6,9 -10,13l-1 0 -1 0c-7,-11 -16,-20 -27,-27 -4,-3 -8,-5 -12,-5 -17,0 -23,33 -25,52l-1 1 0 0z"/>
   <path class="fil7" d="M924 522c14,0 27,2 38,6 1,-5 1,-11 0,-16 -27,6 -67,10 -58,-21 4,-15 10,-27 17,-37 -3,-2 -7,-3 -11,-4 -2,-1 -5,-1 -7,-2 0,28 -4,66 -32,52 -15,-7 -25,-17 -34,-26 -2,4 -5,8 -7,12 26,10 61,28 37,49 -11,10 -23,17 -34,21 3,5 6,9 10,13 16,-23 42,-50 56,-22 7,14 10,28 11,40 3,-1 6,-2 9,-3 -13,-25 -27,-62 5,-62z"/>
   <path class="fil1" d="M883 534c7,0 12,4 17,13 6,12 9,25 11,39 2,-1 5,-2 7,-3 -9,-18 -19,-42 -12,-54 4,-5 9,-8 18,-8l1 0c12,0 24,2 36,6 1,-5 1,-9 0,-14 -12,3 -23,4 -32,4 -12,0 -20,-3 -24,-8 -4,-4 -4,-11 -2,-18 3,-13 9,-26 17,-37 -3,-1 -7,-2 -10,-3 -2,-1 -4,-1 -6,-2 0,18 -2,41 -11,50 -6,6 -14,7 -23,2 -12,-6 -23,-15 -32,-25 -3,3 -5,6 -7,10 19,7 42,18 45,32 1,6 -2,12 -8,18 -10,9 -21,16 -33,21 2,3 5,7 8,10 11,-15 27,-33 40,-33zm27 54l-1 0 0 -1c-1,-14 -5,-27 -11,-40 -4,-7 -9,-11 -15,-11 -13,0 -28,18 -39,33l-1 1 -1 -1c-4,-3 -7,-8 -10,-12l0 -1 1 -1c12,-4 24,-11 33,-20 6,-6 9,-11 8,-17 -3,-13 -26,-24 -45,-31l0 -1 0 0c2,-5 5,-9 8,-13l0 0 1 0c10,11 21,20 33,26 8,4 15,4 20,-1 9,-9 11,-32 11,-50l0 0 1 -1c2,1 5,1 7,2 4,1 8,2 12,4l0 1 0 0c-8,12 -14,24 -17,37 -2,7 -2,13 1,17 4,5 12,7 23,7 9,0 20,-1 33,-4l1 0 0 1c1,5 1,11 0,16l-1 1 0 0c-12,-4 -25,-6 -37,-6l-1 0c-8,0 -13,2 -16,7 -7,12 3,35 12,53l0 1 0 0c-3,2 -7,3 -10,4l0 0z"/>
   <path class="fil7" d="M908 518c0,9 -7,15 -15,15 -8,0 -15,-6 -15,-15 0,-8 7,-15 15,-15 8,0 15,7 15,15z"/>
   <path class="fil1" d="M893 504c-8,0 -14,7 -14,14 0,8 6,14 14,14 8,0 14,-6 14,-14 0,-7 -6,-14 -14,-14zm0 30c-9,0 -16,-7 -16,-16 0,-8 7,-16 16,-16 9,0 16,8 16,16 0,9 -7,16 -16,16z"/>
   <path class="fil1" d="M906 518c0,8 -6,14 -13,14 -8,0 -13,-6 -13,-14 0,-7 5,-13 13,-13 7,0 13,6 13,13z"/>
   <path class="fil9" d="M905 518c0,7 -6,12 -12,12 -7,0 -12,-5 -12,-12 0,-6 5,-12 12,-12 6,0 12,6 12,12z"/>
   <path class="fil10" d="M853 417c0,0 -55,20 -66,76 0,0 -2,8 2,11 0,0 2,3 4,-3 2,-7 13,-70 89,-82 0,0 13,1 13,-3 0,-5 -20,-7 -42,1z"/>
   <path class="fil11" d="M2 451l88 -1c0,0 25,-2 24,28l1 45c0,0 1,10 -4,11 -5,1 -68,0 -68,0 0,0 -21,-1 -27,-21 -6,-20 -14,-62 -14,-62z"/>
   <path class="fil12" d="M4 453c2,9 9,42 14,59 6,19 25,20 25,20 0,0 28,0 48,0 15,0 19,0 19,0 3,-1 3,-6 3,-8l-1 -46c0,-9 -2,-16 -6,-20 -5,-6 -13,-6 -15,-6 -1,0 -1,0 -1,0l-86 1zm87 83c-20,0 -48,0 -48,0 0,0 -22,-1 -29,-22 -5,-20 -14,-62 -14,-62 0,-1 0,-2 0,-2 1,-1 1,-1 2,-1l88 -1c0,0 0,0 1,0 3,0 12,1 18,7 5,5 7,13 7,23l1 45c0,1 1,11 -6,13 -1,0 -4,0 -20,0z"/>
   <path class="fil13" d="M54 474c0,0 38,-6 44,11 6,18 10,35 4,36 -6,0 -40,-15 -48,-47z"/>
   <path class="fil12" d="M57 475c8,29 39,44 45,44l0 2 0 -2 1 -1c0,-1 2,-7 -7,-32 -3,-9 -17,-11 -28,-11 -5,0 -9,0 -11,0zm45 47c-7,0 -42,-16 -50,-48 0,0 0,-1 0,-1 1,-1 1,-1 2,-1 0,0 6,-1 14,-1 18,0 29,5 32,14 10,29 7,34 6,35 -1,2 -2,2 -4,2l0 0z"/>
   <polygon class="fil14" points="22,508 10,456 94,456 18,463 "/>
   <path class="fil15" d="M1230 432l-187 27c0,0 -12,4 -10,16 0,0 8,24 7,45l1 2c2,7 6,12 12,16l164 0c0,0 16,7 23,-9l14 -80c0,0 0,-18 -24,-17z"/>
   <path class="fil1" d="M1053 536l164 0 0 0c0,0 4,1 8,1 6,0 11,-3 14,-9l14 -79c0,-2 -2,-16 -23,-15l-187 27c0,0 -10,3 -9,14 1,2 9,24 8,45l0 1c3,7 6,12 11,15zm172 5c-4,0 -7,-1 -8,-1l-164 0 -1 0c-6,-4 -10,-9 -13,-17l0 -3 0 0c1,-21 -8,-44 -8,-44l0 0c-2,-12 7,-17 12,-19l187 -27c1,0 1,0 2,0 24,0 24,19 24,19l0 1 -14 79 0 1c-5,9 -12,11 -17,11z"/>
   <path class="fil16" d="M1225 537c-4,0 -8,-1 -8,-1l0 0 -164 0c-5,-3 -8,-8 -11,-15l0 -1c1,-21 -7,-43 -8,-45 0,-2 0,-3 1,-5 0,2 1,4 2,7 3,7 7,13 8,22 0,5 1,11 4,15 5,5 12,7 20,7 7,0 14,-1 19,-1 23,-1 135,-4 147,-40 5,-16 10,-36 3,-45 14,2 15,13 15,14l-14 79c-3,6 -8,9 -14,9z"/>
   <path class="fil1" d="M1225 539c-5,0 -8,-1 -8,-1l-164 0c-6,-4 -10,-9 -12,-16l-1 -2c1,-21 -7,-45 -7,-45 -1,-3 0,-6 1,-8 0,1 0,2 1,3 -1,2 -1,3 -1,5 1,2 9,24 8,45l0 1c3,7 6,12 11,15l164 0 0 0c0,0 4,1 8,1 6,0 11,-3 14,-9l14 -79c0,-1 -1,-12 -15,-14 0,-1 -1,-2 -2,-3 18,3 18,17 18,17l-14 80c-4,8 -10,10 -15,10z"/>
   <path class="fil17" d="M1040 475c0,0 -1,-9 7,-11 8,-2 182,-27 182,-27l-180 30c0,0 -7,1 -9,8z"/>
   <path class="fil18" d="M627 239l295 0c0,0 -84,-209 -166,-212 -33,-1 -82,-1 -129,-1l0 213z"/>
   <path class="fil19" d="M629 238l290 0c-10,-25 -88,-207 -163,-209 -24,-1 -59,-1 -104,-1 -8,0 -15,0 -23,0l0 210zm293 3l-295 0c-1,0 -2,0 -2,-2l0 -213c0,-1 1,-2 2,-2 8,0 16,0 25,0 45,0 80,0 104,1 35,1 74,38 116,108 31,53 52,105 52,106 0,0 0,1 0,2 0,0 -1,0 -2,0z"/>
   <path class="fil18" d="M604 26c-59,0 -110,1 -110,1 0,0 -100,8 -177,212l287 0 0 -213z"/>
   <path class="fil19" d="M320 238l283 0 0 -210c-59,0 -108,1 -109,1 -1,0 -98,10 -174,209zm284 3l-287 0c0,0 -1,0 -1,0 -1,-1 -1,-2 0,-2 76,-204 174,-214 178,-214 1,0 51,-1 110,-1l0 0c1,0 1,0 2,1 0,0 0,1 0,1l0 213c0,2 0,2 -2,2z"/>
   <path class="fil0" d="M603 275c0,9 -7,16 -15,16l-59 0c-9,0 -16,-7 -16,-16 0,-8 7,-15 16,-15l59 0c8,0 15,7 15,15z"/>
   <path class="fil1" d="M529 262c-8,0 -14,6 -14,13 0,8 6,14 14,14l59 0c7,0 13,-6 13,-14 0,-7 -6,-13 -13,-13l-59 0zm59 30l-59 0c-10,0 -17,-7 -17,-17 0,-9 7,-17 17,-17l59 0c9,0 17,8 17,17 0,10 -8,17 -17,17z"/>
   <path class="fil20" d="M547 271c0,2 -1,4 -3,4l-15 0c-2,0 -4,-2 -4,-4 0,-2 2,-4 4,-4l15 0c2,0 3,2 3,4z"/>
   <path class="fil0" d="M918 275c0,9 -6,16 -15,16l-59 0c-8,0 -15,-7 -15,-16 0,-8 7,-15 15,-15l59 0c9,0 15,7 15,15z"/>
   <path class="fil1" d="M844 262c-7,0 -13,6 -13,13 0,8 6,14 13,14l59 0c8,0 14,-6 14,-14 0,-7 -6,-13 -14,-13l-59 0zm59 30l-59 0c-9,0 -17,-7 -17,-17 0,-9 8,-17 17,-17l59 0c10,0 17,8 17,17 0,10 -7,17 -17,17z"/>
   <path class="fil20" d="M863 271c0,2 -2,4 -4,4l-15 0c-2,0 -4,-2 -4,-4 0,-2 2,-4 4,-4l15 0c2,0 4,2 4,4z"/>
   <path class="fil18" d="M835 54c18,23 89,96 127,183l32 0c0,0 -52,-116 -108,-173 -16,-17 -33,-29 -48,-37 -7,7 -11,17 -3,27z"/>
   <path class="fil19" d="M963 235l28 0c-8,-18 -56,-118 -106,-170 -14,-14 -30,-26 -47,-36 -7,9 -7,16 -2,24 4,4 9,10 16,18 28,33 80,94 111,164zm31 4l-32 0c-1,0 -1,-1 -2,-1 -31,-70 -83,-131 -111,-164 -7,-8 -12,-14 -16,-19 -7,-9 -6,-19 3,-30 1,0 2,0 3,0 17,10 34,22 48,37 56,57 108,173 109,174 0,1 0,1 -1,2 0,0 0,1 -1,1z"/>
   <path class="fil18" d="M413 47c5,-10 -4,-16 -15,-18 -14,8 -29,19 -44,35 -56,57 -108,173 -108,173l36 -3c33,-74 131,-187 131,-187z"/>
   <path class="fil19" d="M399 31c-16,9 -31,21 -44,34 -50,51 -97,151 -106,170l32 -3c32,-71 126,-180 131,-186 1,-3 1,-5 0,-7 -2,-4 -6,-6 -13,-8zm-153 208c-1,0 -1,0 -2,-1 0,-1 0,-1 0,-2 1,-1 53,-117 108,-174 14,-14 29,-25 45,-35 1,0 1,0 2,0 9,2 14,5 16,10 2,3 2,7 0,11l0 0c-1,1 -99,114 -131,186 0,1 -1,1 -2,1l-36 4 0 0z"/>
   <path class="fil5" d="M105 371c0,29 -18,53 -40,53 -23,0 -41,-24 -41,-53 0,-29 18,-52 41,-52 22,0 40,23 40,52z"/>
   <path class="fil1" d="M65 321c-22,0 -39,23 -39,50 0,28 17,51 39,51 21,0 38,-23 38,-51 0,-27 -17,-50 -38,-50zm0 104c-24,0 -43,-24 -43,-54 0,-30 19,-54 43,-54 23,0 42,24 42,54 0,30 -19,54 -42,54z"/>
   <path class="fil21" d="M92 369c0,23 -14,42 -32,42 -18,0 -32,-19 -32,-42 0,-22 14,-41 32,-41 18,0 32,19 32,41z"/>
   <path class="fil1" d="M60 329c-17,0 -30,18 -30,40 0,22 13,40 30,40 17,0 31,-18 31,-40 0,-22 -14,-40 -31,-40zm0 83c-18,0 -33,-19 -33,-43 0,-23 15,-42 33,-42 19,0 34,19 34,42 0,24 -15,43 -34,43z"/>
   <path class="fil20" d="M59 358c0,9 -6,17 -13,17 -7,0 -13,-8 -13,-17 0,-9 6,-16 13,-16 7,0 13,7 13,16z"/>
   <path class="fil5" d="M1172 349c0,16 10,29 23,29 12,0 23,-13 23,-29 0,-17 -11,-30 -23,-30 -13,0 -23,13 -23,30z"/>
   <path class="fil1" d="M1195 321c-12,0 -21,12 -21,28 0,15 9,27 21,27 11,0 21,-12 21,-27 0,-16 -10,-28 -21,-28zm0 59c-14,0 -25,-14 -25,-31 0,-18 11,-32 25,-32 13,0 24,14 24,32 0,17 -11,31 -24,31z"/>
   <path class="fil21" d="M1179 348c0,13 8,23 18,23 10,0 18,-10 18,-23 0,-13 -8,-24 -18,-24 -10,0 -18,11 -18,24z"/>
   <path class="fil1" d="M1197 326c-9,0 -17,9 -17,22 0,12 8,22 17,22 9,0 17,-10 17,-22 0,-13 -8,-22 -17,-22zm0 47c-11,0 -20,-12 -20,-25 0,-14 9,-25 20,-25 11,0 20,11 20,25 0,13 -9,25 -20,25z"/>
   <path class="fil20" d="M1198 341c0,5 3,10 7,10 4,0 7,-5 7,-10 0,-5 -3,-9 -7,-9 -4,0 -7,4 -7,9z"/>
   <path class="fil1" d="M627 482c0,2 -2,4 -4,4 -2,0 -3,-2 -3,-4l0 -207c0,-2 1,-4 3,-4 2,0 4,2 4,4l0 207z"/>
   <path class="fil22" d="M330 221l-35 16c0,0 -8,3 -9,10 0,7 7,9 16,8 9,0 34,0 34,0l-6 -34z"/>
   <path class="fil1" d="M329 224l-33 15c0,0 -7,2 -8,8 0,1 0,3 1,4 2,2 7,2 13,2 2,0 6,0 11,0 8,0 17,0 21,0l-5 -29zm7 33l0 0c0,0 -12,0 -23,0 -5,0 -9,0 -11,0 -8,0 -13,-1 -16,-4 -1,-2 -2,-4 -2,-6 1,-8 10,-12 11,-12l34 -15c1,-1 2,-1 2,0 1,0 1,0 1,1l6 34c0,0 0,1 0,1 -1,1 -1,1 -2,1z"/>
   <path class="fil0" d="M352 189l0 -11c0,0 -19,-2 -27,16 0,0 -8,23 -3,56 0,0 1,20 13,22 12,2 17,-1 17,-1l0 -82z"/>
   <path class="fil1" d="M350 180c-5,0 -17,1 -23,15 0,0 -7,22 -3,55 0,1 1,18 11,20 3,0 6,0 9,0 3,0 5,0 6,0l0 -90 0 0zm-6 94l0 0c-3,0 -6,0 -9,-1 -14,-2 -15,-22 -15,-22 -5,-34 3,-56 3,-57 9,-20 29,-18 29,-18 1,0 2,1 2,2l0 93c0,1 -1,1 -1,2 -1,0 -3,1 -9,1z"/>
   <path class="fil20" d="M340 196l0 -5c0,0 -8,-1 -11,7 0,0 -3,9 -1,22 0,0 0,8 5,9 5,0 7,-1 7,-1l0 -32z"/>
   <path class="fil1" d="M96 309c-2,0 -3,-1 -4,-3 -1,-2 1,-4 3,-5l167 -52c2,-1 4,1 5,3 0,2 -1,4 -3,4l-167 53 -1 0z"/>
  </g>
 </g>
</svg>
